<svg width="41" height="40" viewBox="0 0 41 40" fill="none" xmlns="http://www.w3.org/2000/svg">
<g clip-path="url(#clip0_820_8777)">
<path d="M8.83823 25.5983C8.83823 24.8342 8.56115 24.1819 8.00699 23.6413C7.45283 23.1007 6.78414 22.8304 6.00093 22.8304C5.21771 22.8304 4.54903 23.1007 3.99487 23.6413C3.44071 24.1819 3.16363 24.8342 3.16363 25.5983C3.16363 26.3623 3.44071 27.0146 3.99487 27.5552C4.54903 28.0958 5.21771 28.3661 6.00093 28.3661C6.78414 28.3661 7.45283 28.0958 8.00699 27.5552C8.56115 27.0146 8.83823 26.3623 8.83823 25.5983ZM13.0942 15.9108C13.0942 15.1467 12.8171 14.4944 12.2629 13.9538C11.7088 13.4132 11.0401 13.1429 10.2569 13.1429C9.47367 13.1429 8.80498 13.4132 8.25082 13.9538C7.69666 14.4944 7.41958 15.1467 7.41958 15.9108C7.41958 16.6748 7.69666 17.3271 8.25082 17.8677C8.80498 18.4083 9.47367 18.6786 10.2569 18.6786C11.0401 18.6786 11.7088 18.4083 12.2629 17.8677C12.8171 17.3271 13.0942 16.6748 13.0942 15.9108ZM22.5814 26.3119L24.8202 18.0515C24.9089 17.6767 24.8535 17.3271 24.654 17.0028C24.4545 16.6784 24.17 16.4658 23.8006 16.3649C23.4311 16.264 23.0765 16.3108 22.7366 16.5054C22.3967 16.7 22.175 16.9848 22.0716 17.3596L19.8328 25.6199C18.9461 25.692 18.1555 26.0055 17.461 26.5605C16.7664 27.1155 16.3009 27.8255 16.0645 28.6905C15.7689 29.8005 15.9167 30.8529 16.5078 31.8476C17.0989 32.8423 17.9634 33.4838 19.1013 33.7721C20.2392 34.0604 21.3179 33.9163 22.3376 33.3396C23.3572 32.763 24.0148 31.9196 24.3104 30.8096C24.5468 29.9447 24.5025 29.1013 24.1774 28.2796C23.8523 27.4579 23.3203 26.802 22.5814 26.3119ZM37.2112 25.5983C37.2112 24.8342 36.9342 24.1819 36.38 23.6413C35.8258 23.1007 35.1572 22.8304 34.3739 22.8304C33.5907 22.8304 32.922 23.1007 32.3679 23.6413C31.8137 24.1819 31.5366 24.8342 31.5366 25.5983C31.5366 26.3623 31.8137 27.0146 32.3679 27.5552C32.922 28.0958 33.5907 28.3661 34.3739 28.3661C35.1572 28.3661 35.8258 28.0958 36.38 27.5552C36.9342 27.0146 37.2112 26.3623 37.2112 25.5983ZM23.0247 11.759C23.0247 10.9949 22.7477 10.3426 22.1935 9.80202C21.6393 9.26142 20.9706 8.99112 20.1874 8.99112C19.4042 8.99112 18.7355 9.26142 18.1814 9.80202C17.6272 10.3426 17.3501 10.9949 17.3501 11.759C17.3501 12.523 17.6272 13.1753 18.1814 13.7159C18.7355 14.2565 19.4042 14.5268 20.1874 14.5268C20.9706 14.5268 21.6393 14.2565 22.1935 13.7159C22.7477 13.1753 23.0247 12.523 23.0247 11.759ZM32.9553 15.9108C32.9553 15.1467 32.6782 14.4944 32.124 13.9538C31.5699 13.4132 30.9012 13.1429 30.118 13.1429C29.3348 13.1429 28.6661 13.4132 28.1119 13.9538C27.5578 14.4944 27.2807 15.1467 27.2807 15.9108C27.2807 16.6748 27.5578 17.3271 28.1119 17.8677C28.6661 18.4083 29.3348 18.6786 30.118 18.6786C30.9012 18.6786 31.5699 18.4083 32.124 17.8677C32.6782 17.3271 32.9553 16.6748 32.9553 15.9108ZM40.0485 25.5983C40.0485 29.3608 39.0067 32.8423 36.9231 36.0426C36.6423 36.4607 36.2433 36.6697 35.7261 36.6697H4.64878C4.13156 36.6697 3.73256 36.4607 3.45179 36.0426C1.36815 32.8567 0.326324 29.3752 0.326324 25.5983C0.326324 22.9746 0.85093 20.4662 1.90014 18.0732C2.94935 15.6801 4.36061 13.6186 6.13393 11.8887C7.90724 10.1588 10.0204 8.78209 12.4735 7.75856C14.9266 6.73503 17.4979 6.22327 20.1874 6.22327C22.877 6.22327 25.4483 6.73503 27.9013 7.75856C30.3544 8.78209 32.4676 10.1588 34.2409 11.8887C36.0143 13.6186 37.4255 15.6801 38.4747 18.0732C39.5239 20.4662 40.0485 22.9746 40.0485 25.5983Z" fill="#6A4334"/>
</g>
<defs>
<clipPath id="clip0_820_8777">
<rect width="39.7222" height="38.75" fill="white" transform="translate(0.326324 0.6875)"/>
</clipPath>
</defs>
</svg>
